<svg width="25" height="24" viewBox="0 0 25 24" fill="none" xmlns="http://www.w3.org/2000/svg">
<path d="M12.4998 13.3998L7.5998 18.2998C7.41647 18.4831 7.18314 18.5748 6.8998 18.5748C6.61647 18.5748 6.38314 18.4831 6.1998 18.2998C6.01647 18.1165 5.9248 17.8831 5.9248 17.5998C5.9248 17.3165 6.01647 17.0831 6.1998 16.8998L11.0998 11.9998L6.1998 7.0998C6.01647 6.91647 5.9248 6.68314 5.9248 6.3998C5.9248 6.11647 6.01647 5.88314 6.1998 5.6998C6.38314 5.51647 6.61647 5.4248 6.8998 5.4248C7.18314 5.4248 7.41647 5.51647 7.5998 5.6998L12.4998 10.5998L17.3998 5.6998C17.5831 5.51647 17.8165 5.4248 18.0998 5.4248C18.3831 5.4248 18.6165 5.51647 18.7998 5.6998C18.9831 5.88314 19.0748 6.11647 19.0748 6.3998C19.0748 6.68314 18.9831 6.91647 18.7998 7.0998L13.8998 11.9998L18.7998 16.8998C18.9831 17.0831 19.0748 17.3165 19.0748 17.5998C19.0748 17.8831 18.9831 18.1165 18.7998 18.2998C18.6165 18.4831 18.3831 18.5748 18.0998 18.5748C17.8165 18.5748 17.5831 18.4831 17.3998 18.2998L12.4998 13.3998Z" fill="#858585"/>
</svg>
