<svg width="23" height="23" viewBox="0 0 23 23" fill="none" xmlns="http://www.w3.org/2000/svg">
<g clip-path="url(#clip0_266_393)">
<path d="M14.25 18.8333H5.08333V6.91658C5.08333 6.41242 4.67083 5.99992 4.16667 5.99992C3.6625 5.99992 3.25 6.41242 3.25 6.91658V18.8333C3.25 19.8416 4.075 20.6666 5.08333 20.6666H14.25C14.7542 20.6666 15.1667 20.2541 15.1667 19.7499C15.1667 19.2458 14.7542 18.8333 14.25 18.8333ZM18.8333 15.1666V4.16659C18.8333 3.15825 18.0083 2.33325 17 2.33325H8.75C7.74167 2.33325 6.91667 3.15825 6.91667 4.16659V15.1666C6.91667 16.1749 7.74167 16.9999 8.75 16.9999H17C18.0083 16.9999 18.8333 16.1749 18.8333 15.1666ZM17 15.1666H8.75V4.16659H17V15.1666Z" fill="#A6A8A8"/>
</g>
<defs>
<clipPath id="clip0_266_393">
<rect width="22" height="22" fill="white" transform="translate(0.5 0.5)"/>
</clipPath>
</defs>
</svg>
