<svg width="23" height="23" viewBox="0 0 23 23" fill="none" xmlns="http://www.w3.org/2000/svg">
<g clip-path="url(#clip0_266_399)">
<path d="M9.33639 7.50332C9.60223 6.93499 9.72139 6.28415 9.64806 5.58749C9.47389 4.00165 8.23639 2.65415 6.65973 2.38832C4.12056 1.94832 1.94806 4.12082 2.38806 6.65082C2.66306 8.22749 4.00139 9.46499 5.58723 9.63915C6.28389 9.71249 6.92556 9.59332 7.50306 9.32749L9.66639 11.5L7.50306 13.6633C6.93473 13.3975 6.28389 13.2783 5.58723 13.3517C4.00139 13.5258 2.65389 14.7633 2.38806 16.34C1.94806 18.8792 4.12056 21.0425 6.65056 20.6025C8.22723 20.3275 9.46473 18.9892 9.63889 17.4033C9.71223 16.7067 9.59306 16.065 9.32723 15.4875L11.4997 13.3333L18.4572 20.2908C19.2731 21.1067 20.6664 20.5292 20.6664 19.3742V19.365C20.6664 19.0258 20.5289 18.6958 20.2906 18.4483L9.33639 7.50332ZM5.99973 7.83332C4.99139 7.83332 4.16639 7.01749 4.16639 5.99999C4.16639 4.98249 4.99139 4.16665 5.99973 4.16665C7.00806 4.16665 7.83306 4.98249 7.83306 5.99999C7.83306 7.01749 7.00806 7.83332 5.99973 7.83332ZM5.99973 18.8333C4.99139 18.8333 4.16639 18.0175 4.16639 17C4.16639 15.9825 4.99139 15.1667 5.99973 15.1667C7.00806 15.1667 7.83306 15.9825 7.83306 17C7.83306 18.0175 7.00806 18.8333 5.99973 18.8333ZM11.4997 11.9583C11.2431 11.9583 11.0414 11.7567 11.0414 11.5C11.0414 11.2433 11.2431 11.0417 11.4997 11.0417C11.7564 11.0417 11.9581 11.2433 11.9581 11.5C11.9581 11.7567 11.7564 11.9583 11.4997 11.9583ZM18.4572 2.70915L12.4164 8.74999L14.2497 10.5833L20.2906 4.54249C20.5289 4.30415 20.6664 3.97415 20.6664 3.62582V3.61665C20.6664 2.47082 19.2731 1.89332 18.4572 2.70915Z" fill="#A6A8A8"/>
</g>
<defs>
<clipPath id="clip0_266_399">
<rect width="22" height="22" fill="white" transform="translate(0.5 0.5)"/>
</clipPath>
</defs>
</svg>
