<svg width="23" height="22" viewBox="0 0 23 22" fill="none" xmlns="http://www.w3.org/2000/svg">
<g clip-path="url(#clip0_87_906)">
<path d="M4.16667 11.9167H9.66667C10.1708 11.9167 10.5833 11.5042 10.5833 11V3.66667C10.5833 3.1625 10.1708 2.75 9.66667 2.75H4.16667C3.6625 2.75 3.25 3.1625 3.25 3.66667V11C3.25 11.5042 3.6625 11.9167 4.16667 11.9167ZM4.16667 19.25H9.66667C10.1708 19.25 10.5833 18.8375 10.5833 18.3333V14.6667C10.5833 14.1625 10.1708 13.75 9.66667 13.75H4.16667C3.6625 13.75 3.25 14.1625 3.25 14.6667V18.3333C3.25 18.8375 3.6625 19.25 4.16667 19.25ZM13.3333 19.25H18.8333C19.3375 19.25 19.75 18.8375 19.75 18.3333V11C19.75 10.4958 19.3375 10.0833 18.8333 10.0833H13.3333C12.8292 10.0833 12.4167 10.4958 12.4167 11V18.3333C12.4167 18.8375 12.8292 19.25 13.3333 19.25ZM12.4167 3.66667V7.33333C12.4167 7.8375 12.8292 8.25 13.3333 8.25H18.8333C19.3375 8.25 19.75 7.8375 19.75 7.33333V3.66667C19.75 3.1625 19.3375 2.75 18.8333 2.75H13.3333C12.8292 2.75 12.4167 3.1625 12.4167 3.66667Z" fill="#858585"/>
</g>
<defs>
<clipPath id="clip0_87_906">
<rect width="22" height="22" fill="white" transform="translate(0.5)"/>
</clipPath>
</defs>
</svg>
