<svg width="23" height="23" viewBox="0 0 23 23" fill="none" xmlns="http://www.w3.org/2000/svg">
<path d="M6.91699 19.75C6.41283 19.75 5.98138 19.5706 5.62266 19.2119C5.26333 18.8526 5.08366 18.4208 5.08366 17.9167V6C4.82394 6 4.60608 5.91231 4.43008 5.73692C4.25469 5.56092 4.16699 5.34306 4.16699 5.08333C4.16699 4.82361 4.25469 4.60575 4.43008 4.42975C4.60608 4.25436 4.82394 4.16667 5.08366 4.16667H8.75033C8.75033 3.90694 8.83833 3.68908 9.01433 3.51308C9.18971 3.33769 9.40727 3.25 9.66699 3.25H13.3337C13.5934 3.25 13.8112 3.33769 13.9872 3.51308C14.1626 3.68908 14.2503 3.90694 14.2503 4.16667H17.917C18.1767 4.16667 18.3943 4.25436 18.5697 4.42975C18.7457 4.60575 18.8337 4.82361 18.8337 5.08333C18.8337 5.34306 18.7457 5.56092 18.5697 5.73692C18.3943 5.91231 18.1767 6 17.917 6V17.9167C17.917 18.4208 17.7376 18.8526 17.3789 19.2119C17.0196 19.5706 16.5878 19.75 16.0837 19.75H6.91699ZM6.91699 6V17.9167H16.0837V6H6.91699ZM8.75033 15.1667C8.75033 15.4264 8.83833 15.6439 9.01433 15.8193C9.18971 15.9953 9.40727 16.0833 9.66699 16.0833C9.92671 16.0833 10.1446 15.9953 10.3206 15.8193C10.496 15.6439 10.5837 15.4264 10.5837 15.1667V8.75C10.5837 8.49028 10.496 8.27242 10.3206 8.09642C10.1446 7.92103 9.92671 7.83333 9.66699 7.83333C9.40727 7.83333 9.18971 7.92103 9.01433 8.09642C8.83833 8.27242 8.75033 8.49028 8.75033 8.75V15.1667ZM12.417 15.1667C12.417 15.4264 12.505 15.6439 12.681 15.8193C12.8564 15.9953 13.0739 16.0833 13.3337 16.0833C13.5934 16.0833 13.8112 15.9953 13.9872 15.8193C14.1626 15.6439 14.2503 15.4264 14.2503 15.1667V8.75C14.2503 8.49028 14.1626 8.27242 13.9872 8.09642C13.8112 7.92103 13.5934 7.83333 13.3337 7.83333C13.0739 7.83333 12.8564 7.92103 12.681 8.09642C12.505 8.27242 12.417 8.49028 12.417 8.75V15.1667Z" fill="#A6A8A8"/>
</svg>
