<svg width="20" height="21" viewBox="0 0 20 21" fill="none" xmlns="http://www.w3.org/2000/svg">
<path d="M5.00065 18.8334C4.54232 18.8334 4.1501 18.6704 3.82398 18.3442C3.49732 18.0176 3.33398 17.6251 3.33398 17.1667V3.83341C3.33398 3.37508 3.49732 2.98258 3.82398 2.65591C4.1501 2.3298 4.54232 2.16675 5.00065 2.16675H10.9798C11.202 2.16675 11.414 2.20841 11.6157 2.29175C11.8168 2.37508 11.9937 2.49314 12.1465 2.64591L16.1882 6.68758C16.3409 6.84036 16.459 7.0173 16.5423 7.21841C16.6257 7.42008 16.6673 7.63203 16.6673 7.85425V12.1667H15.0007V8.00008H11.6673C11.4312 8.00008 11.2334 7.92008 11.074 7.76008C10.914 7.60064 10.834 7.40286 10.834 7.16675V3.83341H5.00065V17.1667H12.5007V18.8334H5.00065ZM17.6882 18.5417L15.834 16.6876V17.7084C15.834 17.9445 15.754 18.1423 15.594 18.3017C15.4345 18.4617 15.2368 18.5417 15.0007 18.5417C14.7645 18.5417 14.5668 18.4617 14.4073 18.3017C14.2473 18.1423 14.1673 17.9445 14.1673 17.7084V14.6667C14.1673 14.4306 14.2473 14.2329 14.4073 14.0734C14.5668 13.9134 14.7645 13.8334 15.0007 13.8334H18.0423C18.2784 13.8334 18.4765 13.9134 18.6365 14.0734C18.7959 14.2329 18.8757 14.4306 18.8757 14.6667C18.8757 14.9029 18.7959 15.1006 18.6365 15.2601C18.4765 15.4201 18.2784 15.5001 18.0423 15.5001H17.0007L18.8757 17.3751C19.0284 17.5279 19.1048 17.719 19.1048 17.9484C19.1048 18.1773 19.0284 18.3751 18.8757 18.5417C18.709 18.7084 18.5112 18.7917 18.2823 18.7917C18.0529 18.7917 17.8548 18.7084 17.6882 18.5417Z" fill="#858585"/>
</svg>
