<svg width="20" height="21" viewBox="0 0 20 21" fill="none" xmlns="http://www.w3.org/2000/svg">
<path d="M3.33268 17.1666C2.87435 17.1666 2.48213 17.0035 2.15602 16.6774C1.82935 16.3508 1.66602 15.9583 1.66602 15.4999V5.49992C1.66602 5.04159 1.82935 4.64936 2.15602 4.32325C2.48213 3.99659 2.87435 3.83325 3.33268 3.83325H7.64518C7.8674 3.83325 8.07935 3.87492 8.28102 3.95825C8.48213 4.04159 8.65907 4.15964 8.81185 4.31242L9.99935 5.49992H16.666C17.1243 5.49992 17.5168 5.66325 17.8435 5.98992C18.1696 6.31603 18.3327 6.70825 18.3327 7.16659V15.4999C18.3327 15.9583 18.1696 16.3508 17.8435 16.6774C17.5168 17.0035 17.1243 17.1666 16.666 17.1666H3.33268ZM3.33268 5.49992V15.4999H16.666V7.16659H9.31185L7.64518 5.49992H3.33268Z" fill="#858585"/>
</svg>
