<svg width="23" height="23" viewBox="0 0 23 23" fill="none" xmlns="http://www.w3.org/2000/svg">
<path d="M5.08333 10.5833C4.57917 10.5833 4.14742 10.4037 3.78808 10.0443C3.42936 9.68561 3.25 9.25417 3.25 8.75V5.08333C3.25 4.57917 3.42936 4.14742 3.78808 3.78808C4.14742 3.42936 4.57917 3.25 5.08333 3.25H8.75C9.25417 3.25 9.68592 3.42936 10.0453 3.78808C10.404 4.14742 10.5833 4.57917 10.5833 5.08333V8.75C10.5833 9.25417 10.404 9.68561 10.0453 10.0443C9.68592 10.4037 9.25417 10.5833 8.75 10.5833H5.08333ZM5.08333 19.75C4.57917 19.75 4.14742 19.5706 3.78808 19.2119C3.42936 18.8526 3.25 18.4208 3.25 17.9167V14.25C3.25 13.7458 3.42936 13.3141 3.78808 12.9548C4.14742 12.596 4.57917 12.4167 5.08333 12.4167H8.75C9.25417 12.4167 9.68592 12.596 10.0453 12.9548C10.404 13.3141 10.5833 13.7458 10.5833 14.25V17.9167C10.5833 18.4208 10.404 18.8526 10.0453 19.2119C9.68592 19.5706 9.25417 19.75 8.75 19.75H5.08333ZM14.25 10.5833C13.7458 10.5833 13.3144 10.4037 12.9557 10.0443C12.5963 9.68561 12.4167 9.25417 12.4167 8.75V5.08333C12.4167 4.57917 12.5963 4.14742 12.9557 3.78808C13.3144 3.42936 13.7458 3.25 14.25 3.25H17.9167C18.4208 3.25 18.8526 3.42936 19.2119 3.78808C19.5706 4.14742 19.75 4.57917 19.75 5.08333V8.75C19.75 9.25417 19.5706 9.68561 19.2119 10.0443C18.8526 10.4037 18.4208 10.5833 17.9167 10.5833H14.25ZM14.25 19.75C13.7458 19.75 13.3144 19.5706 12.9557 19.2119C12.5963 18.8526 12.4167 18.4208 12.4167 17.9167V14.25C12.4167 13.7458 12.5963 13.3141 12.9557 12.9548C13.3144 12.596 13.7458 12.4167 14.25 12.4167H17.9167C18.4208 12.4167 18.8526 12.596 19.2119 12.9548C19.5706 13.3141 19.75 13.7458 19.75 14.25V17.9167C19.75 18.4208 19.5706 18.8526 19.2119 19.2119C18.8526 19.5706 18.4208 19.75 17.9167 19.75H14.25ZM5.08333 8.75H8.75V5.08333H5.08333V8.75ZM14.25 8.75H17.9167V5.08333H14.25V8.75ZM14.25 17.9167H17.9167V14.25H14.25V17.9167ZM5.08333 17.9167H8.75V14.25H5.08333V17.9167Z" fill="#11A37B"/>
</svg>
