<svg width="21" height="21" viewBox="0 0 21 21" fill="none" xmlns="http://www.w3.org/2000/svg">
<g clip-path="url(#clip0_521_1190)">
<path d="M10.4997 6.3335C8.19967 6.3335 6.33301 8.20016 6.33301 10.5002C6.33301 12.8002 8.19967 14.6668 10.4997 14.6668C12.7997 14.6668 14.6663 12.8002 14.6663 10.5002C14.6663 8.20016 12.7997 6.3335 10.4997 6.3335ZM2.16634 11.3335H3.83301C4.29134 11.3335 4.66634 10.9585 4.66634 10.5002C4.66634 10.0418 4.29134 9.66683 3.83301 9.66683H2.16634C1.70801 9.66683 1.33301 10.0418 1.33301 10.5002C1.33301 10.9585 1.70801 11.3335 2.16634 11.3335ZM17.1663 11.3335H18.833C19.2913 11.3335 19.6663 10.9585 19.6663 10.5002C19.6663 10.0418 19.2913 9.66683 18.833 9.66683H17.1663C16.708 9.66683 16.333 10.0418 16.333 10.5002C16.333 10.9585 16.708 11.3335 17.1663 11.3335ZM9.66634 2.16683V3.8335C9.66634 4.29183 10.0413 4.66683 10.4997 4.66683C10.958 4.66683 11.333 4.29183 11.333 3.8335V2.16683C11.333 1.7085 10.958 1.3335 10.4997 1.3335C10.0413 1.3335 9.66634 1.7085 9.66634 2.16683ZM9.66634 17.1668V18.8335C9.66634 19.2918 10.0413 19.6668 10.4997 19.6668C10.958 19.6668 11.333 19.2918 11.333 18.8335V17.1668C11.333 16.7085 10.958 16.3335 10.4997 16.3335C10.0413 16.3335 9.66634 16.7085 9.66634 17.1668ZM5.49134 4.31683C5.16634 3.99183 4.63301 3.99183 4.31634 4.31683C3.99134 4.64183 3.99134 5.17516 4.31634 5.49183L5.19967 6.37516C5.52467 6.70016 6.05801 6.70016 6.37467 6.37516C6.69134 6.05016 6.69967 5.51683 6.37467 5.20016L5.49134 4.31683ZM15.7997 14.6252C15.4747 14.3002 14.9413 14.3002 14.6247 14.6252C14.2997 14.9502 14.2997 15.4835 14.6247 15.8002L15.508 16.6835C15.833 17.0085 16.3663 17.0085 16.683 16.6835C17.008 16.3585 17.008 15.8252 16.683 15.5085L15.7997 14.6252ZM16.683 5.49183C17.008 5.16683 17.008 4.6335 16.683 4.31683C16.358 3.99183 15.8247 3.99183 15.508 4.31683L14.6247 5.20016C14.2997 5.52516 14.2997 6.0585 14.6247 6.37516C14.9497 6.69183 15.483 6.70016 15.7997 6.37516L16.683 5.49183ZM6.37467 15.8002C6.69967 15.4752 6.69967 14.9418 6.37467 14.6252C6.04967 14.3002 5.51634 14.3002 5.19967 14.6252L4.31634 15.5085C3.99134 15.8335 3.99134 16.3668 4.31634 16.6835C4.64134 17.0002 5.17467 17.0085 5.49134 16.6835L6.37467 15.8002Z" fill="#858585"/>
</g>
<defs>
<clipPath id="clip0_521_1190">
<rect width="20" height="20" fill="white" transform="translate(0.5 0.5)"/>
</clipPath>
</defs>
</svg>
