<svg width="23" height="23" viewBox="0 0 23 23" fill="none" xmlns="http://www.w3.org/2000/svg">
<g clip-path="url(#clip0_266_416)">
<path d="M17.9167 2.33333H14.085C13.7 1.27 12.6917 0.5 11.5 0.5C10.3083 0.5 9.3 1.27 8.915 2.33333H5.08333C4.075 2.33333 3.25 3.15833 3.25 4.16667V18.8333C3.25 19.8417 4.075 20.6667 5.08333 20.6667H17.9167C18.925 20.6667 19.75 19.8417 19.75 18.8333V4.16667C19.75 3.15833 18.925 2.33333 17.9167 2.33333ZM11.5 2.33333C12.0042 2.33333 12.4167 2.74583 12.4167 3.25C12.4167 3.75417 12.0042 4.16667 11.5 4.16667C10.9958 4.16667 10.5833 3.75417 10.5833 3.25C10.5833 2.74583 10.9958 2.33333 11.5 2.33333ZM17 18.8333H6C5.49583 18.8333 5.08333 18.4208 5.08333 17.9167V5.08333C5.08333 4.57917 5.49583 4.16667 6 4.16667H6.91667V5.08333C6.91667 6.09167 7.74167 6.91667 8.75 6.91667H14.25C15.2583 6.91667 16.0833 6.09167 16.0833 5.08333V4.16667H17C17.5042 4.16667 17.9167 4.57917 17.9167 5.08333V17.9167C17.9167 18.4208 17.5042 18.8333 17 18.8333Z" fill="#A6A8A8"/>
</g>
<defs>
<clipPath id="clip0_266_416">
<rect width="22" height="22" fill="white" transform="translate(0.5 0.5)"/>
</clipPath>
</defs>
</svg>
