<svg width="23" height="23" viewBox="0 0 23 23" fill="none" xmlns="http://www.w3.org/2000/svg">
<g clip-path="url(#clip0_202_458)">
<path d="M16.9997 12.4168H12.4163V17.0002C12.4163 17.5043 12.0038 17.9168 11.4997 17.9168C10.9955 17.9168 10.583 17.5043 10.583 17.0002V12.4168H5.99967C5.49551 12.4168 5.08301 12.0043 5.08301 11.5002C5.08301 10.996 5.49551 10.5835 5.99967 10.5835H10.583V6.00016C10.583 5.496 10.9955 5.0835 11.4997 5.0835C12.0038 5.0835 12.4163 5.496 12.4163 6.00016V10.5835H16.9997C17.5038 10.5835 17.9163 10.996 17.9163 11.5002C17.9163 12.0043 17.5038 12.4168 16.9997 12.4168Z" fill="white"/>
</g>
<defs>
<clipPath id="clip0_202_458">
<rect width="22" height="22" fill="white" transform="translate(0.5 0.5)"/>
</clipPath>
</defs>
</svg>
