<svg width="22" height="22" viewBox="0 0 22 22" fill="none" xmlns="http://www.w3.org/2000/svg">
<g id="Timer" clip-path="url(#clip0_87_1065)">
<g id="Group">
<g id="Group_2">
<path id="Vector" d="M9.16667 2.74984H12.8333C13.3375 2.74984 13.75 2.33734 13.75 1.83317C13.75 1.329 13.3375 0.916504 12.8333 0.916504H9.16667C8.6625 0.916504 8.25 1.329 8.25 1.83317C8.25 2.33734 8.6625 2.74984 9.16667 2.74984Z" fill="#858585"/>
<path id="Vector_2" d="M17.444 6.774L18.1315 6.0865C18.4798 5.73817 18.489 5.16067 18.1315 4.80317L18.1223 4.794C17.7648 4.4365 17.1965 4.44567 16.839 4.794L16.1515 5.4815C14.7307 4.34484 12.9432 3.6665 10.9998 3.6665C6.59985 3.6665 2.85985 7.2965 2.74985 11.6965C2.63068 16.3532 6.36151 20.1665 10.9998 20.1665C15.5648 20.1665 19.2498 16.4723 19.2498 11.9165C19.2498 9.97317 18.5715 8.18567 17.444 6.774ZM11.9165 11.9165C11.9165 12.4207 11.504 12.8332 10.9998 12.8332C10.4957 12.8332 10.0832 12.4207 10.0832 11.9165V8.24984C10.0832 7.74567 10.4957 7.33317 10.9998 7.33317C11.504 7.33317 11.9165 7.74567 11.9165 8.24984V11.9165Z" fill="#858585"/>
</g>
</g>
</g>
<defs>
<clipPath id="clip0_87_1065">
<rect width="22" height="22" fill="white"/>
</clipPath>
</defs>
</svg>
