<svg width="23" height="23" viewBox="0 0 23 23" fill="none" xmlns="http://www.w3.org/2000/svg">
<path d="M9.66634 19.7499L13.333 16.0833H18.833C19.3372 16.0833 19.7689 16.2626 20.1283 16.6213C20.487 16.9807 20.6663 17.4124 20.6663 17.9166C20.6663 18.4208 20.487 18.8525 20.1283 19.2118C19.7689 19.5706 19.3372 19.7499 18.833 19.7499H9.66634ZM4.16634 17.9166H5.44967L13.3559 10.0103L12.0726 8.727L4.16634 16.6333V17.9166ZM17.2747 8.68117L13.3788 4.83117L14.6622 3.54784C15.0136 3.19645 15.4453 3.02075 15.9574 3.02075C16.4689 3.02075 16.9004 3.19645 17.2518 3.54784L18.5351 4.83117C18.8865 5.18256 19.0698 5.60667 19.0851 6.1035C19.1004 6.59972 18.9323 7.02353 18.5809 7.37492L17.2747 8.68117ZM3.24967 19.7499C2.98995 19.7499 2.7724 19.6619 2.59701 19.4859C2.42101 19.3105 2.33301 19.093 2.33301 18.8333V16.2437C2.33301 16.1214 2.35592 16.0032 2.40176 15.8889C2.44759 15.774 2.51634 15.6708 2.60801 15.5791L12.0497 6.13742L15.9455 10.0333L6.50384 19.4749C6.41217 19.5666 6.3092 19.6353 6.19492 19.6812C6.08004 19.727 5.96148 19.7499 5.83926 19.7499H3.24967ZM12.7143 9.36867L12.0726 8.727L13.3559 10.0103L12.7143 9.36867Z" fill="#A6A8A8"/>
</svg>
