<svg width="21" height="20" viewBox="0 0 21 20" fill="none" xmlns="http://www.w3.org/2000/svg">
<path d="M10.333 11.6667C9.87467 11.6667 9.48245 11.5033 9.15634 11.1767C8.82967 10.8506 8.66634 10.4583 8.66634 10C8.66634 9.54167 8.82967 9.14917 9.15634 8.8225C9.48245 8.49639 9.87467 8.33333 10.333 8.33333C10.7913 8.33333 11.1838 8.49639 11.5105 8.8225C11.8366 9.14917 11.9997 9.54167 11.9997 10C11.9997 10.4583 11.8366 10.8506 11.5105 11.1767C11.1838 11.5033 10.7913 11.6667 10.333 11.6667ZM10.333 17.5C8.5969 17.5 7.06217 16.9792 5.72884 15.9375C4.39551 14.8958 3.51356 13.5556 3.08301 11.9167C3.01356 11.625 3.05884 11.3714 3.21884 11.1558C3.37829 10.9408 3.5969 10.8333 3.87467 10.8333C4.06912 10.8333 4.24634 10.9028 4.40634 11.0417C4.56579 11.1806 4.67329 11.3472 4.72884 11.5417C5.04829 12.8056 5.72884 13.8367 6.77051 14.635C7.81217 15.4339 8.99967 15.8333 10.333 15.8333C11.958 15.8333 13.3363 15.2672 14.468 14.135C15.6002 13.0033 16.1663 11.625 16.1663 10C16.1663 8.375 15.6002 6.99639 14.468 5.86417C13.3363 4.7325 11.958 4.16667 10.333 4.16667C9.37467 4.16667 8.47884 4.38889 7.64551 4.83333C6.81217 5.27778 6.11079 5.88889 5.54134 6.66667H6.99967C7.23579 6.66667 7.43384 6.74639 7.59384 6.90583C7.75329 7.06583 7.83301 7.26389 7.83301 7.5C7.83301 7.73611 7.75329 7.93389 7.59384 8.09333C7.43384 8.25333 7.23579 8.33333 6.99967 8.33333H3.66634C3.43023 8.33333 3.23245 8.25333 3.07301 8.09333C2.91301 7.93389 2.83301 7.73611 2.83301 7.5V4.16667C2.83301 3.93056 2.91301 3.7325 3.07301 3.5725C3.23245 3.41306 3.43023 3.33333 3.66634 3.33333C3.90245 3.33333 4.10051 3.41306 4.26051 3.5725C4.41995 3.7325 4.49967 3.93056 4.49967 4.16667V5.29167C5.20801 4.40278 6.07273 3.71528 7.09384 3.22917C8.1144 2.74306 9.19412 2.5 10.333 2.5C11.3747 2.5 12.3505 2.69778 13.2605 3.09333C14.17 3.48944 14.9616 4.02417 15.6355 4.6975C16.3088 5.37139 16.8436 6.16306 17.2397 7.0725C17.6352 7.9825 17.833 8.95833 17.833 10C17.833 11.0417 17.6352 12.0172 17.2397 12.9267C16.8436 13.8367 16.3088 14.6283 15.6355 15.3017C14.9616 15.9756 14.17 16.5106 13.2605 16.9067C12.3505 17.3022 11.3747 17.5 10.333 17.5Z" fill="#858585"/>
</svg>
