<svg width="23" height="23" viewBox="0 0 23 23" fill="none" xmlns="http://www.w3.org/2000/svg">
<path d="M7.83333 17H4.16667C3.90694 17 3.68939 16.912 3.514 16.736C3.338 16.5606 3.25 16.3431 3.25 16.0833C3.25 15.8236 3.338 15.6061 3.514 15.4307C3.68939 15.2547 3.90694 15.1667 4.16667 15.1667H7.83333C8.09306 15.1667 8.31092 15.2547 8.48692 15.4307C8.66231 15.6061 8.75 15.8236 8.75 16.0833C8.75 16.3431 8.66231 16.5606 8.48692 16.736C8.31092 16.912 8.09306 17 7.83333 17ZM18.8333 7.83333H4.16667C3.90694 7.83333 3.68939 7.74564 3.514 7.57025C3.338 7.39425 3.25 7.17639 3.25 6.91667C3.25 6.65694 3.338 6.43908 3.514 6.26308C3.68939 6.08769 3.90694 6 4.16667 6H18.8333C19.0931 6 19.3106 6.08769 19.486 6.26308C19.662 6.43908 19.75 6.65694 19.75 6.91667C19.75 7.17639 19.662 7.39425 19.486 7.57025C19.3106 7.74564 19.0931 7.83333 18.8333 7.83333ZM13.3333 12.4167H4.16667C3.90694 12.4167 3.68939 12.3287 3.514 12.1527C3.338 11.9773 3.25 11.7597 3.25 11.5C3.25 11.2403 3.338 11.0224 3.514 10.8464C3.68939 10.671 3.90694 10.5833 4.16667 10.5833H13.3333C13.5931 10.5833 13.8109 10.671 13.9869 10.8464C14.1623 11.0224 14.25 11.2403 14.25 11.5C14.25 11.7597 14.1623 11.9773 13.9869 12.1527C13.8109 12.3287 13.5931 12.4167 13.3333 12.4167Z" fill="#11A37B"/>
</svg>
