<svg width="25" height="24" viewBox="0 0 25 24" fill="none" xmlns="http://www.w3.org/2000/svg">
<g clip-path="url(#clip0_594_1160)">
<path d="M20.1503 9.04L15.3103 8.62L13.4203 4.17C13.0803 3.36 11.9203 3.36 11.5803 4.17L9.69032 8.63L4.86032 9.04C3.98032 9.11 3.62032 10.21 4.29032 10.79L7.96032 13.97L6.86032 18.69C6.66032 19.55 7.59032 20.23 8.35032 19.77L12.5003 17.27L16.6503 19.78C17.4103 20.24 18.3403 19.56 18.1403 18.7L17.0403 13.97L20.7103 10.79C21.3803 10.21 21.0303 9.11 20.1503 9.04ZM12.5003 15.4L8.74032 17.67L9.74032 13.39L6.42032 10.51L10.8003 10.13L12.5003 6.1L14.2103 10.14L18.5903 10.52L15.2703 13.4L16.2703 17.68L12.5003 15.4Z" fill="#858585"/>
</g>
<defs>
<clipPath id="clip0_594_1160">
<rect width="24" height="24" fill="white" transform="translate(0.5)"/>
</clipPath>
</defs>
</svg>
