<svg width="14" height="18" viewBox="0 0 14 18" fill="none" xmlns="http://www.w3.org/2000/svg">
<path d="M1.24967 15.4167C1.24967 16.425 2.07467 17.25 3.08301 17.25H10.4163C11.4247 17.25 12.2497 16.425 12.2497 15.4167V6.25C12.2497 5.24167 11.4247 4.41667 10.4163 4.41667H3.08301C2.07467 4.41667 1.24967 5.24167 1.24967 6.25V15.4167ZM12.2497 1.66667H9.95801L9.30717 1.01583C9.14217 0.850833 8.90384 0.75 8.66551 0.75H4.83384C4.59551 0.75 4.35717 0.850833 4.19217 1.01583L3.54134 1.66667H1.24967C0.745508 1.66667 0.333008 2.07917 0.333008 2.58333C0.333008 3.0875 0.745508 3.5 1.24967 3.5H12.2497C12.7538 3.5 13.1663 3.0875 13.1663 2.58333C13.1663 2.07917 12.7538 1.66667 12.2497 1.66667Z" fill="#858585"/>
</svg>
